<svg width="19" height="19" fill="none" xmlns="http://www.w3.org/2000/svg"><path fill-rule="evenodd" clip-rule="evenodd" d="M9.26 3.367h.48V0h-.48v3.367ZM9.5 4.81a4.454 4.454 0 0 0-4.45 4.45 4.454 4.454 0 0 0 4.45 4.449 4.454 4.454 0 0 0 4.45-4.45A4.454 4.454 0 0 0 9.5 4.81Zm0 9.38a4.936 4.936 0 0 1-4.93-4.93A4.936 4.936 0 0 1 9.5 4.33a4.936 4.936 0 0 1 4.93 4.93 4.936 4.936 0 0 1-4.93 4.93ZM9.74 19h-.48v-3.367h.48V19ZM0 9.74h3.367v-.48H0v.48Zm19 0h-3.367v-.48H19v.48ZM5.234 5.094l-2.381-2.38.34-.34 2.38 2.38-.34.34Zm8.673 8.673 2.38 2.381.341-.34-2.38-2.38-.34.34ZM2.953 16.147l-.34-.34 2.38-2.38.34.34-2.38 2.38ZM13.667 4.753l.34.34 2.38-2.38-.34-.34-2.38 2.38Z" fill="#6E6E6E"/></svg>